<mxfile host="app.diagrams.net" modified="2023-09-21T19:02:57.882Z" agent="Mozilla/5.0 (Windows NT 10.0; Win64; x64) AppleWebKit/537.36 (KHTML, like Gecko) Chrome/116.0.0.0 Safari/537.36" version="21.8.0" etag="7ni5XCU4hLfdXNmZxcie" type="github">
  <diagram name="Page-1" id="hx88wOmi8IvSk5MF0xkA">
    <mxGraphModel>
      <root>
        <mxCell id="0" />
        <mxCell id="1" parent="0" />
      </root>
    </mxGraphModel>
  </diagram>
</mxfile>
